#N canvas 0 50 1280 942 10;
#X obj 641 656 vline~;
#X obj 45 410 pack 0 0;
#X obj 105 119 vsl 15 60 0 1 0 0 empty empty empty 0 -9 0 10 -262144
-1 -1 0 1;
#X obj 135 402 pack 0 0;
#X obj 125 119 vsl 15 60 0 1 0 0 empty empty empty 0 -9 0 10 -262144
-1 -1 0 1;
#X obj 240 406 pack 0 0;
#X obj 145 120 vsl 15 60 0 1 0 0 empty empty empty 0 -9 0 10 -262144
-1 -1 0 1;
#X obj 345 405 pack 0 0;
#X obj 165 121 vsl 15 60 0 1 0 0 empty empty empty 0 -9 0 10 -262144
-1 -1 0 1;
#X obj 444 409 pack 0 0;
#X obj 104 192 vsl 15 60 0 1 0 0 empty empty empty 0 -9 0 10 -262144
-1 -1 0 1;
#X obj 548 408 pack 0 0;
#X obj 122 192 vsl 15 60 0 1 0 0 empty empty empty 0 -9 0 10 -262144
-1 -1 5900 1;
#X obj 652 407 pack 0 0;
#X obj 144 191 vsl 15 60 0 1 0 0 empty empty empty 0 -9 0 10 -262144
-1 -1 0 1;
#X obj 758 408 pack 0 0;
#X obj 162 192 vsl 15 60 0 1 0 0 empty empty empty 0 -9 0 10 -262144
-1 -1 4900 1;
#X obj 642 682 outlet~;
#X obj 383 14 inlet;
#X obj 887 416 pack 0 0;
#X obj 192 119 vsl 15 60 0 1 0 0 empty empty empty 0 -9 0 10 -262144
-1 -1 0 1;
#X obj 977 408 pack 0 0;
#X obj 212 119 vsl 15 60 0 1 0 0 empty empty empty 0 -9 0 10 -262144
-1 -1 0 1;
#X obj 1082 412 pack 0 0;
#X obj 231 120 vsl 15 60 0 1 0 0 empty empty empty 0 -9 0 10 -262144
-1 -1 0 1;
#X obj 1187 411 pack 0 0;
#X obj 249 121 vsl 15 60 0 1 0 0 empty empty empty 0 -9 0 10 -262144
-1 -1 0 1;
#X obj 1286 415 pack 0 0;
#X obj 191 192 vsl 15 60 0 1 0 0 empty empty empty 0 -9 0 10 -262144
-1 -1 0 1;
#X obj 1390 414 pack 0 0;
#X obj 212 192 vsl 15 60 0 1 0 0 empty empty empty 0 -9 0 10 -262144
-1 -1 0 1;
#X obj 1494 413 pack 0 0;
#X obj 230 191 vsl 15 60 0 1 0 0 empty empty empty 0 -9 0 10 -262144
-1 -1 0 1;
#X obj 1600 414 pack 0 0;
#X obj 248 192 vsl 15 60 0 1 0 0 empty empty empty 0 -9 0 10 -262144
-1 -1 0 1;
#X msg 1585 454 0 \, \$2 5 \, 0 10 5;
#X obj 387 43 sel 0 1 2 3 4 5 6 7 8 9 10 11 12 13 14 15;
#X msg 20 440 0 \, \$2 5 \, 0 100 5;
#X msg 120 442 0 \, \$2 5 \, 0 100 5;
#X msg 225 446 0 \, \$2 5 \, 0 100 5;
#X msg 330 445 0 \, \$2 5 \, 0 100 5;
#X msg 429 449 0 \, \$2 5 \, 0 100 5;
#X msg 533 448 0 \, \$2 5 \, 0 100 5;
#X msg 637 447 0 \, \$2 5 \, 0 100 5;
#X msg 743 448 0 \, \$2 5 \, 0 100 5;
#X msg 862 446 0 \, \$2 5 \, 0 100 5;
#X msg 962 448 0 \, \$2 5 \, 0 100 5;
#X msg 1067 452 0 \, \$2 5 \, 0 100 5;
#X msg 1172 451 0 \, \$2 5 \, 0 100 5;
#X msg 1272 455 0 \, \$2 5 \, 0 100 5;
#X msg 1375 454 0 \, \$2 5 \, 0 100 5;
#X msg 1479 453 0 \, \$2 5 \, 0 100 5;
#X connect 0 0 17 0;
#X connect 1 0 37 0;
#X connect 2 0 1 1;
#X connect 3 0 38 0;
#X connect 4 0 3 1;
#X connect 5 0 39 0;
#X connect 6 0 5 1;
#X connect 7 0 40 0;
#X connect 8 0 7 1;
#X connect 9 0 41 0;
#X connect 10 0 9 1;
#X connect 11 0 42 0;
#X connect 12 0 11 1;
#X connect 13 0 43 0;
#X connect 14 0 13 1;
#X connect 15 0 44 0;
#X connect 16 0 15 1;
#X connect 18 0 36 0;
#X connect 19 0 45 0;
#X connect 20 0 19 1;
#X connect 21 0 46 0;
#X connect 22 0 21 1;
#X connect 23 0 47 0;
#X connect 24 0 23 1;
#X connect 25 0 48 0;
#X connect 26 0 25 1;
#X connect 27 0 49 0;
#X connect 28 0 27 1;
#X connect 29 0 50 0;
#X connect 30 0 29 1;
#X connect 31 0 51 0;
#X connect 32 0 31 1;
#X connect 33 0 35 0;
#X connect 34 0 33 1;
#X connect 35 0 0 0;
#X connect 36 0 1 0;
#X connect 36 1 3 0;
#X connect 36 2 5 0;
#X connect 36 3 7 0;
#X connect 36 4 9 0;
#X connect 36 5 11 0;
#X connect 36 6 13 0;
#X connect 36 7 15 0;
#X connect 36 8 19 0;
#X connect 36 9 21 0;
#X connect 36 10 23 0;
#X connect 36 11 25 0;
#X connect 36 12 27 0;
#X connect 36 13 29 0;
#X connect 36 14 31 0;
#X connect 36 15 33 0;
#X connect 37 0 0 0;
#X connect 38 0 0 0;
#X connect 39 0 0 0;
#X connect 40 0 0 0;
#X connect 41 0 0 0;
#X connect 42 0 0 0;
#X connect 43 0 0 0;
#X connect 44 0 0 0;
#X connect 45 0 0 0;
#X connect 46 0 0 0;
#X connect 47 0 0 0;
#X connect 48 0 0 0;
#X connect 49 0 0 0;
#X connect 50 0 0 0;
#X connect 51 0 0 0;
#X coords 0 -1 1 1 170 160 1 100 100;
