#N canvas 0 50 1280 669 10;
#X obj 343 111 +~;
#X obj 595 104 +~;
#X obj 654 185 delwrite~ elDelay01 2000;
#X obj 101 167 delwrite~ elDelay02 2000;
#X obj 356 170 +~;
#X obj 534 172 +~;
#X obj 332 52 catch~ alDelayiz;
#X obj 577 40 catch~ alDelayder;
#X obj 323 287 throw~ Dacis;
#X obj 542 285 throw~ Dacder;
#X obj 50 60 delread~ elDelay02 250;
#X obj 224 21 r elControlN;
#X obj 222 65 spigot;
#X obj 191 43 r elValorN;
#X obj 870 5 r elControlN;
#X obj 867 51 spigot;
#X obj 837 27 r elValorN;
#X floatatom 222 111 5 0 0.8 0 - - -, f 5;
#X floatatom 867 97 5 0 0.5 0 - - -, f 5;
#X obj 119 120 *~ 0.5;
#X obj 257 43 == 1;
#X obj 917 28 == 2;
#X obj 714 75 delread~ elDelay01 335;
#X obj 223 88 / 180;
#X obj 870 73 / 180;
#X obj 696 112 *~ 0.5;
#X connect 0 0 3 0;
#X connect 0 0 4 0;
#X connect 1 0 2 0;
#X connect 1 0 5 0;
#X connect 4 0 8 0;
#X connect 5 0 9 0;
#X connect 6 0 0 0;
#X connect 7 0 1 0;
#X connect 10 0 19 0;
#X connect 11 0 20 0;
#X connect 12 0 23 0;
#X connect 13 0 12 0;
#X connect 14 0 21 0;
#X connect 15 0 24 0;
#X connect 16 0 15 0;
#X connect 17 0 19 1;
#X connect 18 0 25 1;
#X connect 19 0 3 0;
#X connect 19 0 4 0;
#X connect 20 0 12 1;
#X connect 21 0 15 1;
#X connect 22 0 25 0;
#X connect 23 0 17 0;
#X connect 24 0 18 0;
#X connect 25 0 2 0;
#X connect 25 0 5 0;
