#N canvas -8 -8 1280 942 10;
#X obj 146 50 tgl 15 0 empty empty empty 17 7 0 10 -262144 -1 -1 1
1;
#X msg 146 70 \; pd dsp \$1;
#X obj 281 153 dac~;
#X obj 246 83 catch~ Dacis;
#X obj 366 85 catch~ Dacder;
#X obj 246 105 *~;
#X obj 365 109 *~;
#X obj 462 61 vsl 15 128 0 0.6 0 0 empty empty empty 0 -9 0 10 -262144
-1 -1 9100 1;
#X obj 147 109 planti;
#X obj 719 296 tgl 15 0 empty empty empty 17 7 0 10 -262144 -1 -1 1
1;
#X obj 719 338 i;
#X obj 749 340 + 1;
#X floatatom 719 360 5 0 0 0 - - -, f 5;
#X obj 674 901 Rithm02;
#X obj 501 895 Rithm01;
#X obj 707 389 % 16, f 6;
#X obj 708 412 s el16;
#X obj 661 388 % 32, f 6;
#X obj 661 410 s el32;
#X obj 311 330 r el32;
#X obj 178 338 r el32;
#X obj 176 377 OscFm;
#X obj 294 383 OscFm01;
#X obj 852 900 Rithm04;
#X obj 375 384 OscFm02;
#X text 281 31 planti OscFm OscFm01 OscFm02 Rithm01 Rithm02 Rithm03
Rithm04;
#X obj 238 234 vsl 15 128 0 0.1 0 0 empty empty empty 0 -9 0 10 -262144
-1 -1 9900 1;
#X obj 416 329 r el32;
#X obj 366 233 vsl 15 128 0 0.1 0 0 empty empty empty 0 -9 0 10 -262144
-1 -1 7500 1;
#X obj 474 243 vsl 15 128 0 0.1 0 0 empty empty empty 0 -9 0 10 -262144
-1 -1 7800 1;
#X floatatom 837 362 5 0 0 0 - - -, f 5;
#X obj 758 390 % 8, f 6;
#X obj 758 412 s el8;
#X obj 613 343 s elMetro;
#X obj 1053 255 r elMetro;
#X obj 1072 27 r el8;
#X obj 401 824 vsl 15 40 0 1 0 0 empty empty empty 0 -9 0 10 -262144
-1 -1 3900 1;
#X obj 611 825 vsl 15 40 0 1 0 0 empty empty empty 0 -9 0 10 -262144
-1 -1 2100 1;
#X obj 820 833 vsl 15 40 0 1 0 0 empty empty empty 0 -9 0 10 -262144
-1 -1 2900 1;
#X obj 1021 829 vsl 15 40 0 1 0 0 empty empty empty 0 -9 0 10 -262144
-1 -1 2400 1;
#X obj 1126 236 vsl 15 40 0 1 0 0 empty empty empty 0 -9 0 10 -262144
-1 -1 3400 1;
#X obj 1155 237 vsl 15 40 0 1 0 0 empty empty empty 0 -9 0 10 -262144
-1 -1 2200 1;
#X msg 963 324 250;
#X msg 936 255 125;
#X msg 952 292 175;
#X msg 952 368 500;
#X obj 1068 296 secuencerNoise01;
#X obj 1010 58 dinamica8;
#X obj 1097 58 dinamica8;
#X obj 225 677 r el16;
#X obj 432 699 dinamica16;
#X obj 432 675 r el16;
#X obj 643 665 r el16;
#X obj 643 689 dinamica16b;
#X obj 225 701 dinamica16b;
#X msg 916 223 100;
#X msg 912 188 90;
#X msg 893 156 85;
#X msg 867 124 80;
#X msg 847 92 77;
#X msg 809 84 75;
#X obj 197 820 vsl 15 40 0 1 0 0 empty empty empty 0 -9 0 10 -262144
-1 -1 2900 1;
#X obj 21 673 r el16;
#X obj 21 697 dinamica16;
#X obj 844 667 r el16;
#X obj 844 691 dinamica16b;
#X obj 1256 834 vsl 15 40 0 1 0 0 empty empty empty 0 -9 0 10 -262144
-1 -1 3100 1;
#X obj 1079 672 r el16;
#X obj 1087 905 Rithm05;
#X obj 101 880 Rithm03;
#X obj 292 886 Rithm03;
#X obj 1079 696 dinamica16c;
#X obj 29 265 tresOsciladoresFm;
#X obj 42 585 writesf~ 2;
#X msg 63 527 start;
#X msg 132 534 stop;
#X msg 266 539 print;
#X text 226 470 OJO ES open !!!! y luego elnombre punto y extension
;
#X text 129 581 entradas solo 2 o solo 1 \, hay mas?;
#X text 232 445 siempre cambiar nombre;
#X obj 538 89 elDelay01;
#X obj 343 182 throw~ alDelayder;
#X obj 91 174 throw~ alDelayiz;
#X obj 90 156 *~;
#X obj 328 155 *~;
#X obj 112 136 tgl 15 0 empty empty empty 17 7 0 10 -262144 -1 -1 0
1;
#X obj 369 147 tgl 15 0 empty empty empty 17 7 0 10 -262144 -1 -1 0
1;
#X obj 719 316 metro 500;
#X msg 16 499 open jam_Oscilator_20180205i.wav;
#X obj 592 170 line;
#X msg 628 94 0 10000;
#X msg 635 129 1 10000;
#X connect 0 0 1 0;
#X connect 3 0 5 0;
#X connect 4 0 6 0;
#X connect 5 0 2 0;
#X connect 5 0 73 0;
#X connect 5 0 83 0;
#X connect 5 0 73 1;
#X connect 6 0 2 1;
#X connect 6 0 84 0;
#X connect 7 0 5 1;
#X connect 7 0 6 1;
#X connect 9 0 87 0;
#X connect 10 0 11 0;
#X connect 10 0 12 0;
#X connect 11 0 10 1;
#X connect 12 0 15 0;
#X connect 12 0 17 0;
#X connect 12 0 31 0;
#X connect 15 0 16 0;
#X connect 17 0 18 0;
#X connect 19 0 22 0;
#X connect 19 0 22 1;
#X connect 19 0 22 2;
#X connect 20 0 21 0;
#X connect 20 0 21 1;
#X connect 20 0 21 2;
#X connect 26 0 21 3;
#X connect 27 0 24 2;
#X connect 27 0 24 1;
#X connect 27 0 24 0;
#X connect 28 0 22 3;
#X connect 29 0 24 3;
#X connect 31 0 32 0;
#X connect 34 0 46 3;
#X connect 35 0 47 0;
#X connect 35 0 48 0;
#X connect 36 0 70 1;
#X connect 37 0 14 1;
#X connect 38 0 13 1;
#X connect 39 0 23 1;
#X connect 40 0 46 2;
#X connect 41 0 46 4;
#X connect 42 0 30 0;
#X connect 42 0 87 1;
#X connect 43 0 30 0;
#X connect 43 0 87 1;
#X connect 44 0 30 0;
#X connect 44 0 87 1;
#X connect 45 0 30 0;
#X connect 45 0 87 1;
#X connect 47 0 46 0;
#X connect 48 0 46 1;
#X connect 49 0 54 0;
#X connect 50 0 14 0;
#X connect 51 0 50 0;
#X connect 52 0 53 0;
#X connect 53 0 13 0;
#X connect 54 0 70 0;
#X connect 55 0 30 0;
#X connect 55 0 87 1;
#X connect 56 0 30 0;
#X connect 56 0 87 1;
#X connect 57 0 30 0;
#X connect 57 0 87 1;
#X connect 58 0 30 0;
#X connect 58 0 87 1;
#X connect 59 0 30 0;
#X connect 59 0 87 1;
#X connect 60 0 30 0;
#X connect 60 0 87 1;
#X connect 61 0 69 1;
#X connect 62 0 63 0;
#X connect 63 0 69 0;
#X connect 64 0 65 0;
#X connect 65 0 23 0;
#X connect 66 0 68 1;
#X connect 67 0 71 0;
#X connect 71 0 68 0;
#X connect 74 0 73 0;
#X connect 75 0 73 0;
#X connect 76 0 73 0;
#X connect 83 0 82 0;
#X connect 84 0 81 0;
#X connect 85 0 83 1;
#X connect 86 0 84 1;
#X connect 87 0 10 0;
#X connect 87 0 33 0;
#X connect 88 0 73 0;
#X connect 90 0 89 0;
#X connect 91 0 89 0;
