#N canvas 0 50 1280 725 10;
#X obj 428 672 throw~ Dacis;
#X obj 529 670 throw~ Dacder;
#X obj 429 362 osc~;
#X floatatom 422 266 5 0 0 0 - - -, f 5;
#X obj 422 291 mtof, f 5;
#X obj 424 320 +~, f 13;
#X obj 514 252 osc~;
#X floatatom 517 202 5 0 0 0 - - -, f 5;
#X obj 515 227 mtof, f 5;
#X obj 427 389 *~ 0.2;
#X obj 554 323 vsl 15 128 0 1 0 0 empty empty empty 0 -9 0 10 -262144
-1 -1 0 1;
#X obj 514 278 *~;
#X floatatom 578 235 5 0 0 0 - - -, f 5;
#X obj 579 259 mtof, f 5;
#X obj 273 212 line;
#X obj 522 30 inlet;
#X obj 519 69 random 10;
#X obj 516 177 line;
#X obj 660 33 inlet;
#X obj 647 190 line;
#X obj 671 83 random 3;
#X obj 491 557 *~;
#X obj 767 431 inlet~;
#X obj 426 420 *~ 1;
#X obj 269 58 inlet;
#X obj 271 99 random 3;
#X obj 273 131 sel 0 1;
#X obj 518 94 sel 0 1;
#X obj 661 109 sel 0 1;
#X msg 222 187 72 30000;
#X msg 290 189 92 30000;
#X msg 475 153 5 30000;
#X msg 533 153 25 30000;
#X msg 607 165 81 30000;
#X msg 668 165 110 30000;
#X obj 271 77 sel 29;
#X obj 527 49 sel 30;
#X obj 662 53 sel 31;
#X connect 2 0 9 0;
#X connect 3 0 4 0;
#X connect 3 0 4 0;
#X connect 4 0 5 0;
#X connect 5 0 2 0;
#X connect 6 0 11 0;
#X connect 7 0 8 0;
#X connect 7 0 8 0;
#X connect 8 0 6 0;
#X connect 9 0 23 0;
#X connect 10 0 23 1;
#X connect 11 0 5 1;
#X connect 12 0 13 0;
#X connect 12 0 13 0;
#X connect 13 0 11 1;
#X connect 14 0 3 0;
#X connect 15 0 36 0;
#X connect 16 0 27 0;
#X connect 17 0 7 0;
#X connect 18 0 37 0;
#X connect 19 0 12 0;
#X connect 20 0 28 0;
#X connect 21 0 0 0;
#X connect 21 0 1 0;
#X connect 22 0 21 1;
#X connect 23 0 21 0;
#X connect 24 0 35 0;
#X connect 25 0 26 0;
#X connect 26 0 29 0;
#X connect 26 1 30 0;
#X connect 27 0 31 0;
#X connect 27 1 32 0;
#X connect 28 0 33 0;
#X connect 28 1 34 0;
#X connect 29 0 14 0;
#X connect 30 0 14 0;
#X connect 31 0 17 0;
#X connect 32 0 17 0;
#X connect 33 0 19 0;
#X connect 34 0 19 0;
#X connect 35 0 25 0;
#X connect 36 0 16 0;
#X connect 37 0 20 0;
