#N canvas 0 50 1280 725 10;
#X obj 428 672 throw~ Dacis;
#X obj 529 670 throw~ Dacder;
#X obj 429 362 osc~;
#X floatatom 422 266 5 0 0 0 - - -, f 5;
#X obj 422 291 mtof, f 5;
#X obj 424 320 +~, f 13;
#X obj 514 252 osc~;
#X floatatom 517 202 5 0 0 0 - - -, f 5;
#X obj 515 227 mtof, f 5;
#X obj 426 512 *~, f 6;
#X obj 513 341 vsl 15 128 0 1 0 0 empty empty empty 0 -9 0 10 -262144
-1 -1 0 1;
#X obj 514 278 *~;
#X floatatom 578 234 5 0 0 0 - - -, f 5;
#X obj 579 259 mtof, f 5;
#X obj 278 103 inlet;
#X obj 275 142 random 10;
#X obj 273 212 line;
#X obj 521 68 inlet;
#X obj 518 107 random 10;
#X obj 516 177 line;
#X obj 660 43 inlet;
#X obj 662 62 sel 0;
#X obj 657 82 random 10;
#X obj 656 104 sel 0;
#X obj 647 190 line;
#X obj 769 338 inlet~;
#X obj 433 453 *~ 1, f 6;
#X obj 274 167 sel 0 1;
#X obj 517 132 sel 0 1;
#X obj 280 122 sel 4;
#X obj 523 87 sel 5;
#X msg 201 193 16 30000;
#X msg 290 189 24 30000;
#X msg 465 158 29 30000;
#X msg 533 154 30 30000;
#X msg 606 166 5 30000;
#X msg 664 167 120 30000;
#X obj 434 411 *~ 0.05;
#X connect 2 0 37 0;
#X connect 3 0 4 0;
#X connect 3 0 4 0;
#X connect 4 0 5 0;
#X connect 5 0 2 0;
#X connect 6 0 11 0;
#X connect 7 0 8 0;
#X connect 7 0 8 0;
#X connect 8 0 6 0;
#X connect 9 0 0 0;
#X connect 9 0 1 0;
#X connect 10 0 26 1;
#X connect 11 0 5 1;
#X connect 12 0 13 0;
#X connect 12 0 13 0;
#X connect 13 0 11 1;
#X connect 14 0 29 0;
#X connect 15 0 27 0;
#X connect 16 0 3 0;
#X connect 17 0 30 0;
#X connect 18 0 28 0;
#X connect 19 0 7 0;
#X connect 20 0 21 0;
#X connect 21 0 22 0;
#X connect 22 0 23 0;
#X connect 23 0 35 0;
#X connect 23 1 36 0;
#X connect 24 0 12 0;
#X connect 25 0 9 1;
#X connect 26 0 9 0;
#X connect 27 0 31 0;
#X connect 27 1 32 0;
#X connect 28 0 33 0;
#X connect 28 1 34 0;
#X connect 29 0 15 0;
#X connect 30 0 18 0;
#X connect 31 0 16 0;
#X connect 32 0 16 0;
#X connect 33 0 19 0;
#X connect 34 0 19 0;
#X connect 35 0 24 0;
#X connect 36 0 24 0;
#X connect 37 0 26 0;
