#N canvas 44 91 1280 725 10;
#X obj 428 672 throw~ Dacis;
#X obj 529 670 throw~ Dacder;
#X obj 429 362 osc~;
#X floatatom 422 266 5 0 0 0 - - -, f 5;
#X obj 422 291 mtof, f 5;
#X obj 424 320 +~, f 13;
#X obj 514 252 osc~;
#X floatatom 517 202 5 0 0 0 - - -, f 5;
#X obj 515 227 mtof, f 5;
#X obj 426 393 *~ 0.2;
#X obj 593 367 vsl 15 128 0 1 0 0 empty empty empty 0 -9 0 10 -262144
-1 -1 0 1;
#X obj 514 278 *~;
#X floatatom 578 235 5 0 0 0 - - -, f 5;
#X obj 579 259 mtof, f 5;
#X obj 270 94 inlet;
#X obj 273 212 line;
#X obj 522 30 inlet;
#X obj 519 69 random 10;
#X obj 516 177 line;
#X obj 647 69 inlet;
#X obj 647 190 line;
#X obj 658 119 random 3;
#X obj 272 135 random 3;
#X obj 426 420 *~ 1;
#X obj 491 557 *~;
#X obj 767 431 inlet~;
#X obj 274 167 sel 0 1;
#X obj 648 145 sel 0 1;
#X obj 518 94 sel 0 1;
#X obj 272 113 sel 12;
#X obj 524 49 sel 17;
#X obj 649 88 sel 3;
#X msg 183 185 115 30000;
#X msg 347 196 130 30000;
#X msg 752 177 140 30000;
#X msg 594 167 110 30000;
#X msg 533 154 25 30000;
#X msg 475 153 5 30000;
#X connect 2 0 9 0;
#X connect 3 0 4 0;
#X connect 3 0 4 0;
#X connect 4 0 5 0;
#X connect 5 0 2 0;
#X connect 6 0 11 0;
#X connect 7 0 8 0;
#X connect 7 0 8 0;
#X connect 8 0 6 0;
#X connect 9 0 23 0;
#X connect 10 0 23 1;
#X connect 11 0 5 1;
#X connect 12 0 13 0;
#X connect 12 0 13 0;
#X connect 13 0 11 1;
#X connect 14 0 29 0;
#X connect 15 0 3 0;
#X connect 16 0 30 0;
#X connect 17 0 28 0;
#X connect 18 0 7 0;
#X connect 19 0 31 0;
#X connect 20 0 12 0;
#X connect 21 0 27 0;
#X connect 22 0 26 0;
#X connect 23 0 24 0;
#X connect 24 0 0 0;
#X connect 24 0 1 0;
#X connect 25 0 24 1;
#X connect 26 0 32 0;
#X connect 26 1 33 0;
#X connect 27 0 35 0;
#X connect 27 1 34 0;
#X connect 28 0 37 0;
#X connect 28 1 36 0;
#X connect 29 0 22 0;
#X connect 30 0 17 0;
#X connect 31 0 21 0;
#X connect 32 0 15 0;
#X connect 33 0 15 0;
#X connect 34 0 20 0;
#X connect 35 0 20 0;
#X connect 36 0 18 0;
#X connect 37 0 18 0;
