#N canvas 0 50 1280 942 10;
#X obj 428 672 throw~ Dacis;
#X obj 529 670 throw~ Dacder;
#X obj 483 581 *~;
#X obj 618 217 mtof;
#X floatatom 618 239 5 0 0 0 - - -, f 5;
#X obj 461 468 *~ 0.7;
#X obj 449 394 -~ 0.5;
#X obj 449 416 *~ 2;
#X msg 590 195 72;
#X obj 450 371 phasor~ 523.2;
#X obj 429 536 lop~ 300;
#X obj 484 611 *~;
#X obj 762 464 inlet~;
#X obj 627 462 inlet~;
#X connect 2 0 11 0;
#X connect 3 0 4 0;
#X connect 5 0 10 0;
#X connect 6 0 7 0;
#X connect 7 0 5 0;
#X connect 8 0 3 0;
#X connect 9 0 6 0;
#X connect 10 0 2 0;
#X connect 11 0 1 0;
#X connect 11 0 0 0;
#X connect 12 0 11 1;
#X connect 13 0 2 1;
