#N canvas 0 50 1280 942 10;
#X obj 403 450 throw~ Dacis;
#X obj 504 448 throw~ Dacder;
#X obj 458 359 *~;
#X obj 404 314 lop~ 300;
#X obj 459 389 *~;
#X obj 737 242 inlet~;
#X obj 602 240 inlet~;
#X obj 373 177 osc~;
#X floatatom 366 81 5 0 0 0 - - -, f 5;
#X obj 366 106 mtof, f 5;
#X obj 368 135 +~, f 13;
#X obj 458 67 osc~;
#X floatatom 461 17 5 0 0 0 - - -, f 5;
#X obj 459 42 mtof, f 5;
#X obj 370 208 *~ 0.2;
#X obj 498 138 vsl 15 128 0 1 0 0 empty empty empty 0 -9 0 10 -262144
-1 -1 0 1;
#X obj 458 93 *~;
#X floatatom 522 50 5 0 0 0 - - -, f 5;
#X obj 523 74 mtof, f 5;
#X obj 217 27 line;
#X obj 460 -8 line;
#X obj 591 5 line;
#X obj 370 235 *~ 1;
#X msg 166 2 72 30000;
#X msg 234 4 92 30000;
#X msg 419 -32 5 30000;
#X msg 477 -32 25 30000;
#X msg 551 -20 81 30000;
#X msg 612 -20 110 30000;
#X obj 792 76 loadbang;
#X msg 642 30 121, f 4;
#X msg 364 55 116;
#X msg 506 3 38;
#X connect 2 0 4 0;
#X connect 3 0 2 0;
#X connect 4 0 1 0;
#X connect 4 0 0 0;
#X connect 5 0 4 1;
#X connect 6 0 2 1;
#X connect 7 0 14 0;
#X connect 8 0 9 0;
#X connect 8 0 9 0;
#X connect 9 0 10 0;
#X connect 10 0 7 0;
#X connect 11 0 16 0;
#X connect 12 0 13 0;
#X connect 12 0 13 0;
#X connect 13 0 11 0;
#X connect 14 0 22 0;
#X connect 15 0 22 1;
#X connect 16 0 10 1;
#X connect 17 0 18 0;
#X connect 17 0 18 0;
#X connect 18 0 16 1;
#X connect 19 0 8 0;
#X connect 20 0 12 0;
#X connect 21 0 17 0;
#X connect 22 0 3 0;
#X connect 23 0 19 0;
#X connect 24 0 19 0;
#X connect 25 0 20 0;
#X connect 26 0 20 0;
#X connect 27 0 21 0;
#X connect 28 0 21 0;
#X connect 29 0 32 0;
#X connect 29 0 30 0;
#X connect 29 0 31 0;
#X connect 30 0 17 0;
#X connect 31 0 8 0;
#X connect 32 0 12 0;
