#N canvas -8 -8 1280 942 10;
#X obj 5 147 noise~;
#X obj 5 169 *~ 0.3;
#X obj 5 246 *~;
#X obj 336 81 sel 0 1 2 3 4 5 6 7;
#X obj 148 241 vline~;
#X obj 211 166 pack 0 0;
#X obj 284 123 vsl 15 60 0 1 0 0 empty empty empty 0 -9 0 10 -262144
-1 -1 0 1;
#X msg 186 196 0 \, \$2 5 \, 0 10 5;
#X obj 320 159 pack 0 0;
#X obj 393 116 vsl 15 60 0 1 0 0 empty empty empty 0 -9 0 10 -262144
-1 -1 0 1;
#X msg 305 199 0 \, \$2 5 \, 0 10 5;
#X obj 441 151 pack 0 0;
#X obj 514 108 vsl 15 60 0 1 0 0 empty empty empty 0 -9 0 10 -262144
-1 -1 0 1;
#X msg 426 191 0 \, \$2 5 \, 0 10 5;
#X obj 212 281 pack 0 0;
#X obj 285 238 vsl 15 60 0 1 0 0 empty empty empty 0 -9 0 10 -262144
-1 -1 0 1;
#X msg 197 321 0 \, \$2 5 \, 0 10 5;
#X obj 347 277 pack 0 0;
#X obj 420 234 vsl 15 60 0 1 0 0 empty empty empty 0 -9 0 10 -262144
-1 -1 5900 1;
#X msg 332 317 0 \, \$2 5 \, 0 10 5;
#X obj 485 272 pack 0 0;
#X obj 558 229 vsl 15 60 0 1 0 0 empty empty empty 0 -9 0 10 -262144
-1 -1 0 1;
#X msg 470 312 0 \, \$2 5 \, 0 10 5;
#X obj 204 398 pack 0 0;
#X obj 277 355 vsl 15 60 0 1 0 0 empty empty empty 0 -9 0 10 -262144
-1 -1 0 1;
#X msg 189 438 0 \, \$2 5 \, 0 10 5;
#X obj 347 396 pack 0 0;
#X obj 420 353 vsl 15 60 0 1 0 0 empty empty empty 0 -9 0 10 -262144
-1 -1 0 1;
#X msg 332 436 0 \, \$2 5 \, 0 10 5;
#X obj 5 191 hip~ 500;
#X obj 92 143 random 5500;
#X obj 96 193 + 2000;
#X obj 622 234 *~;
#X obj 953 69 sel 0 1 2 3 4 5 6 7;
#X obj 765 229 vline~;
#X obj 828 154 pack 0 0;
#X obj 901 111 vsl 15 60 0 1 0 0 empty empty empty 0 -9 0 10 -262144
-1 -1 4300 1;
#X msg 803 184 0 \, \$2 5 \, 0 10 5;
#X obj 937 147 pack 0 0;
#X obj 1010 104 vsl 15 60 0 1 0 0 empty empty empty 0 -9 0 10 -262144
-1 -1 5900 1;
#X msg 922 187 0 \, \$2 5 \, 0 10 5;
#X obj 1058 139 pack 0 0;
#X obj 1131 96 vsl 15 60 0 1 0 0 empty empty empty 0 -9 0 10 -262144
-1 -1 5900 1;
#X msg 1043 179 0 \, \$2 5 \, 0 10 5;
#X obj 829 269 pack 0 0;
#X obj 902 226 vsl 15 60 0 1 0 0 empty empty empty 0 -9 0 10 -262144
-1 -1 0 1;
#X msg 814 309 0 \, \$2 5 \, 0 10 5;
#X obj 964 265 pack 0 0;
#X obj 1037 222 vsl 15 60 0 1 0 0 empty empty empty 0 -9 0 10 -262144
-1 -1 3800 1;
#X msg 949 305 0 \, \$2 5 \, 0 10 5;
#X obj 1102 260 pack 0 0;
#X obj 1175 217 vsl 15 60 0 1 0 0 empty empty empty 0 -9 0 10 -262144
-1 -1 2900 1;
#X msg 1087 300 0 \, \$2 5 \, 0 10 5;
#X obj 821 386 pack 0 0;
#X obj 894 343 vsl 15 60 0 1 0 0 empty empty empty 0 -9 0 10 -262144
-1 -1 5900 1;
#X msg 806 426 0 \, \$2 5 \, 0 10 5;
#X obj 964 384 pack 0 0;
#X obj 1037 341 vsl 15 60 0 1 0 0 empty empty empty 0 -9 0 10 -262144
-1 -1 3200 1;
#X msg 949 424 0 \, \$2 5 \, 0 10 5;
#X obj 622 179 lop~ 500;
#X obj 622 157 *~ 0.6;
#X obj 592 6 inlet;
#X obj 515 5 inlet;
#X obj 234 641 throw~ Dacis;
#X obj 335 639 throw~ Dacder;
#X obj 558 608 throw~ Dacis;
#X obj 659 606 throw~ Dacder;
#X obj 610 545 *~;
#X obj 1074 504 inlet~;
#X obj 206 572 *~;
#X obj 846 487 inlet~;
#X obj 709 129 random 1700;
#X obj 713 181 + 150;
#X connect 0 0 1 0;
#X connect 0 0 60 0;
#X connect 1 0 29 0;
#X connect 2 0 69 0;
#X connect 3 0 5 0;
#X connect 3 1 8 0;
#X connect 3 2 11 0;
#X connect 3 3 14 0;
#X connect 3 4 17 0;
#X connect 3 5 20 0;
#X connect 3 6 23 0;
#X connect 3 7 26 0;
#X connect 4 0 2 1;
#X connect 5 0 7 0;
#X connect 6 0 5 1;
#X connect 7 0 4 0;
#X connect 8 0 10 0;
#X connect 9 0 8 1;
#X connect 10 0 4 0;
#X connect 11 0 13 0;
#X connect 12 0 11 1;
#X connect 13 0 4 0;
#X connect 14 0 16 0;
#X connect 15 0 14 1;
#X connect 16 0 4 0;
#X connect 17 0 19 0;
#X connect 18 0 17 1;
#X connect 19 0 4 0;
#X connect 20 0 22 0;
#X connect 21 0 20 1;
#X connect 22 0 4 0;
#X connect 23 0 25 0;
#X connect 24 0 23 1;
#X connect 25 0 4 0;
#X connect 26 0 28 0;
#X connect 27 0 26 1;
#X connect 28 0 4 0;
#X connect 29 0 2 0;
#X connect 30 0 31 0;
#X connect 31 0 29 1;
#X connect 32 0 67 0;
#X connect 33 0 35 0;
#X connect 33 1 38 0;
#X connect 33 2 41 0;
#X connect 33 3 44 0;
#X connect 33 4 47 0;
#X connect 33 5 50 0;
#X connect 33 6 53 0;
#X connect 33 7 56 0;
#X connect 34 0 32 1;
#X connect 35 0 37 0;
#X connect 36 0 35 1;
#X connect 37 0 34 0;
#X connect 38 0 40 0;
#X connect 39 0 38 1;
#X connect 40 0 34 0;
#X connect 41 0 43 0;
#X connect 42 0 41 1;
#X connect 43 0 34 0;
#X connect 44 0 46 0;
#X connect 45 0 44 1;
#X connect 46 0 34 0;
#X connect 47 0 49 0;
#X connect 48 0 47 1;
#X connect 49 0 34 0;
#X connect 50 0 52 0;
#X connect 51 0 50 1;
#X connect 52 0 34 0;
#X connect 53 0 55 0;
#X connect 54 0 53 1;
#X connect 55 0 34 0;
#X connect 56 0 58 0;
#X connect 57 0 56 1;
#X connect 58 0 34 0;
#X connect 59 0 32 0;
#X connect 60 0 59 0;
#X connect 61 0 30 0;
#X connect 61 0 71 0;
#X connect 62 0 3 0;
#X connect 62 0 33 0;
#X connect 67 0 65 0;
#X connect 67 0 66 0;
#X connect 68 0 67 1;
#X connect 69 0 63 0;
#X connect 69 0 64 0;
#X connect 70 0 69 1;
#X connect 71 0 72 0;
#X connect 72 0 59 1;
