#N canvas 179 275 964 585 10;
#X obj 340 -195 noise~;
#X obj 340 -173 *~ 0.3;
#X obj 340 -96 *~;
#X obj 340 -151 hip~ 500;
#X obj 427 -199 random 5500;
#X obj 431 -149 + 2000;
#X obj 622 -123 *~;
#X obj 622 -178 lop~ 500;
#X obj 622 -200 *~ 0.6;
#X obj 707 -313 inlet;
#X obj 234 284 throw~ Dacis;
#X obj 335 282 throw~ Dacder;
#X obj 558 251 throw~ Dacis;
#X obj 659 249 throw~ Dacder;
#X obj 610 188 *~;
#X obj 1074 147 inlet~;
#X obj 296 209 *~;
#X obj 707 66 inlet~;
#X obj 709 -228 random 1700;
#X obj 713 -176 + 150;
#X obj 351 -330 inlet~;
#X obj 636 -310 inlet~;
#X floatatom 768 -283 5 0 0 0 - - -, f 5;
#X connect 0 0 1 0;
#X connect 0 0 8 0;
#X connect 1 0 3 0;
#X connect 2 0 16 0;
#X connect 3 0 2 0;
#X connect 4 0 5 0;
#X connect 5 0 3 1;
#X connect 6 0 14 0;
#X connect 7 0 6 0;
#X connect 8 0 7 0;
#X connect 9 0 4 0;
#X connect 9 0 18 0;
#X connect 14 0 12 0;
#X connect 14 0 13 0;
#X connect 15 0 14 1;
#X connect 16 0 10 0;
#X connect 16 0 11 0;
#X connect 17 0 16 1;
#X connect 18 0 19 0;
#X connect 19 0 7 1;
#X connect 20 0 2 1;
#X connect 21 0 6 1;
#X coords 0 585 1 584 170 160 0;
