#N canvas -8 -8 1366 685 10;
#X obj 428 672 throw~ Dacis;
#X obj 529 670 throw~ Dacder;
#X floatatom 173 376 5 0 0 0 - - -, f 5;
#X obj 173 398 mtof;
#X obj 208 422 +~;
#X obj 208 445 osc~;
#X obj 208 530 *~;
#X obj 224 334 osc~;
#X floatatom 223 282 5 0 0 0 - - -, f 5;
#X obj 223 304 mtof;
#X obj 241 386 *~;
#X floatatom 286 351 5 0 0 0 - - -, f 5;
#X obj 286 373 mtof;
#X obj 211 469 *~ 0.05;
#X obj 73 30 ctlin;
#X floatatom 125 23 5 0 0 0 - - -, f 5;
#X obj 80 89 s elControlN;
#X obj 93 286 r elControlN;
#X obj 3 88 s elValorN;
#X floatatom 112 65 5 0 0 0 - - -, f 5;
#X obj 62 332 spigot;
#X obj 96 306 == 16;
#X obj 21 302 r elValorN;
#X obj 252 179 r elControlN;
#X obj 250 223 spigot;
#X obj 219 201 r elValorN;
#X obj 285 201 == 17;
#X obj 271 526 / 128;
#X floatatom 271 549 5 0 0 0 - - -, f 5;
#X obj 315 442 r elControlN;
#X obj 313 486 spigot;
#X obj 282 464 r elValorN;
#X obj 348 464 == 0;
#X obj 373 315 r elControlN;
#X obj 371 359 spigot;
#X obj 340 337 r elValorN;
#X obj 406 337 == 18;
#X floatatom 652 355 5 0 0 0 - - -, f 5;
#X obj 652 377 mtof;
#X obj 687 401 +~;
#X obj 687 424 osc~;
#X obj 684 509 *~;
#X obj 703 313 osc~;
#X floatatom 702 261 5 0 0 0 - - -, f 5;
#X obj 702 283 mtof;
#X obj 720 365 *~;
#X floatatom 765 330 5 0 0 0 - - -, f 5;
#X obj 765 352 mtof;
#X obj 690 448 *~ 0.05;
#X obj 572 265 r elControlN;
#X obj 541 311 spigot;
#X obj 500 281 r elValorN;
#X obj 731 158 r elControlN;
#X obj 729 202 spigot;
#X obj 698 180 r elValorN;
#X obj 750 505 / 128;
#X floatatom 750 528 5 0 0 0 - - -, f 5;
#X obj 794 421 r elControlN;
#X obj 792 465 spigot;
#X obj 761 443 r elValorN;
#X obj 852 294 r elControlN;
#X obj 850 338 spigot;
#X obj 819 316 r elValorN;
#X obj 574 285 == 19;
#X obj 764 180 == 20;
#X obj 885 316 == 21;
#X obj 827 443 == 3;
#X floatatom 1107 373 5 0 0 0 - - -, f 5;
#X obj 1107 395 mtof;
#X obj 1142 419 +~;
#X obj 1142 442 osc~;
#X obj 1139 527 *~;
#X obj 1158 331 osc~;
#X floatatom 1157 279 5 0 0 0 - - -, f 5;
#X obj 1157 301 mtof;
#X obj 1175 383 *~;
#X floatatom 1220 348 5 0 0 0 - - -, f 5;
#X obj 1220 370 mtof;
#X obj 1145 466 *~ 0.05;
#X obj 1027 283 r elControlN;
#X obj 996 329 spigot;
#X obj 955 299 r elValorN;
#X obj 1186 176 r elControlN;
#X obj 1184 220 spigot;
#X obj 1153 198 r elValorN;
#X obj 1205 523 / 128;
#X floatatom 1205 546 5 0 0 0 - - -, f 5;
#X obj 1249 439 r elControlN;
#X obj 1247 483 spigot;
#X obj 1216 461 r elValorN;
#X obj 1307 312 r elControlN;
#X obj 1305 356 spigot;
#X obj 1274 334 r elValorN;
#X obj 1029 303 == 22;
#X obj 1219 198 == 23;
#X obj 1282 461 == 6;
#X obj 1340 332 == 7;
#X connect 2 0 3 0;
#X connect 3 0 4 0;
#X connect 4 0 5 0;
#X connect 5 0 13 0;
#X connect 6 0 0 0;
#X connect 6 0 1 0;
#X connect 7 0 10 0;
#X connect 8 0 9 0;
#X connect 9 0 7 0;
#X connect 10 0 4 1;
#X connect 11 0 12 0;
#X connect 12 0 10 1;
#X connect 13 0 6 0;
#X connect 14 0 18 0;
#X connect 14 1 16 0;
#X connect 14 1 19 0;
#X connect 14 2 15 0;
#X connect 17 0 21 0;
#X connect 20 0 2 0;
#X connect 21 0 20 1;
#X connect 22 0 20 0;
#X connect 23 0 26 0;
#X connect 24 0 8 0;
#X connect 25 0 24 0;
#X connect 26 0 24 1;
#X connect 27 0 28 0;
#X connect 28 0 6 1;
#X connect 29 0 32 0;
#X connect 30 0 27 0;
#X connect 31 0 30 0;
#X connect 32 0 30 1;
#X connect 33 0 36 0;
#X connect 34 0 11 0;
#X connect 35 0 34 0;
#X connect 36 0 34 1;
#X connect 37 0 38 0;
#X connect 38 0 39 0;
#X connect 39 0 40 0;
#X connect 40 0 48 0;
#X connect 41 0 0 0;
#X connect 41 0 1 0;
#X connect 42 0 45 0;
#X connect 43 0 44 0;
#X connect 44 0 42 0;
#X connect 45 0 39 1;
#X connect 46 0 47 0;
#X connect 47 0 45 1;
#X connect 48 0 41 0;
#X connect 49 0 63 0;
#X connect 50 0 37 0;
#X connect 51 0 50 0;
#X connect 52 0 64 0;
#X connect 53 0 43 0;
#X connect 54 0 53 0;
#X connect 55 0 56 0;
#X connect 56 0 41 1;
#X connect 57 0 66 0;
#X connect 58 0 55 0;
#X connect 59 0 58 0;
#X connect 60 0 65 0;
#X connect 61 0 46 0;
#X connect 62 0 61 0;
#X connect 63 0 50 1;
#X connect 64 0 53 1;
#X connect 65 0 61 1;
#X connect 66 0 58 1;
#X connect 67 0 68 0;
#X connect 68 0 69 0;
#X connect 69 0 70 0;
#X connect 70 0 78 0;
#X connect 71 0 0 0;
#X connect 71 0 1 0;
#X connect 72 0 75 0;
#X connect 73 0 74 0;
#X connect 74 0 72 0;
#X connect 75 0 69 1;
#X connect 76 0 77 0;
#X connect 77 0 75 1;
#X connect 78 0 71 0;
#X connect 79 0 93 0;
#X connect 80 0 67 0;
#X connect 81 0 80 0;
#X connect 82 0 94 0;
#X connect 83 0 73 0;
#X connect 84 0 83 0;
#X connect 85 0 86 0;
#X connect 86 0 71 1;
#X connect 87 0 95 0;
#X connect 88 0 85 0;
#X connect 89 0 88 0;
#X connect 90 0 96 0;
#X connect 91 0 76 0;
#X connect 92 0 91 0;
#X connect 93 0 80 1;
#X connect 94 0 83 1;
#X connect 95 0 88 1;
#X connect 96 0 91 1;
